<svg width="32" height="32" viewBox="0 0 32 32" fill="none" xmlns="http://www.w3.org/2000/svg">
<path opacity="0.8" d="M24.8191 26.7686L20.0791 22.4207L20.6479 24.1599H9.01889C8.42025 24.1599 7.84613 23.9308 7.42283 23.5231C6.99953 23.1154 6.76172 22.5625 6.76172 21.9859V8.94247C6.76172 8.36591 6.99953 7.81297 7.42283 7.40528C7.84613 6.99759 8.42025 6.76855 9.01889 6.76855H22.562C23.1606 6.76855 23.7347 6.99759 24.158 7.40528C24.5813 7.81297 24.8191 8.36591 24.8191 8.94247V26.7686ZM15.7904 11.812C13.3707 11.812 11.6733 12.812 11.6733 12.812C12.6033 12.012 14.2285 11.5512 14.2285 11.5512L14.075 11.4033C12.5491 11.4294 11.1677 12.4468 11.1677 12.4468C9.61479 15.5686 9.7141 18.2642 9.7141 18.2642C10.9781 19.8381 12.8561 19.7251 12.8561 19.7251L13.4971 18.9425C12.3685 18.7077 11.6553 17.7425 11.6553 17.7425C11.6553 17.7425 13.3527 18.8555 15.7904 18.8555C18.2282 18.8555 19.9256 17.7425 19.9256 17.7425C19.9256 17.7425 19.2123 18.7077 18.0837 18.9425L18.7248 19.7251C18.7248 19.7251 20.6027 19.8381 21.8667 18.2642C21.8667 18.2642 21.9661 15.5686 20.4131 12.4468C20.4131 12.4468 19.0317 11.4294 17.5059 11.4033L17.3524 11.5512C17.3524 11.5512 18.9776 12.012 19.9075 12.812C19.9075 12.812 18.2101 11.812 15.7904 11.812ZM13.9215 15.1077C14.5083 15.1077 14.9869 15.6033 14.9778 16.212C14.9778 16.812 14.5083 17.3164 13.9215 17.3164C13.3436 17.3164 12.8742 16.812 12.8742 16.212C12.8742 15.6033 13.3346 15.1077 13.9215 15.1077ZM17.6865 15.1077C18.2733 15.1077 18.7428 15.6033 18.7428 16.212C18.7428 16.812 18.2733 17.3164 17.6865 17.3164C17.1086 17.3164 16.6391 16.812 16.6391 16.212C16.6391 15.6033 17.0996 15.1077 17.6865 15.1077Z" fill="white" style="fill:white;fill-opacity:1;"/>
</svg>
