<svg width="32" height="32" viewBox="0 0 32 32" fill="none" xmlns="http://www.w3.org/2000/svg">
<path opacity="0.8" fill-rule="evenodd" clip-rule="evenodd" d="M25.6758 15.6768C25.6758 21.1996 21.1986 25.6768 15.6758 25.6768C10.1529 25.6768 5.67578 21.1996 5.67578 15.6768C5.67578 10.1539 10.1529 5.67676 15.6758 5.67676C21.1986 5.67676 25.6758 10.1539 25.6758 15.6768ZM16.802 13.1604L10.5318 15.66C9.42848 16.0765 10.0743 16.4671 10.0743 16.4671C10.0743 16.4671 11.0162 16.7795 11.8235 17.0139C12.6308 17.2482 13.0614 16.9878 13.0614 16.9878L16.8558 14.5143C18.2013 13.6291 17.8784 14.3581 17.5555 14.6706C16.8558 15.3475 15.6987 16.415 14.7299 17.2742C14.2993 17.6387 14.5146 17.9512 14.703 18.1074C15.2506 18.5557 16.54 19.3709 17.1262 19.7415C17.289 19.8444 17.3975 19.913 17.4209 19.93C17.5555 20.0341 18.309 20.5028 18.7665 20.3986C19.2239 20.2945 19.2778 19.6956 19.2778 19.6956L19.9505 15.6079C20.0103 15.2246 20.0701 14.8494 20.1259 14.4995C20.2709 13.5896 20.3886 12.8509 20.408 12.5876C20.4887 11.7024 19.52 12.0669 19.52 12.0669C19.52 12.0669 17.4209 12.9001 16.802 13.1604Z" fill="white" style="fill:white;fill-opacity:1;"/>
</svg>
