<svg width="32" height="32" viewBox="0 0 32 32" fill="none" xmlns="http://www.w3.org/2000/svg">
<path opacity="0.8" fill-rule="evenodd" clip-rule="evenodd" d="M15.6758 25.6749C21.1987 25.6749 25.6759 21.1977 25.6759 15.6749C25.6759 10.152 21.1987 5.6748 15.6758 5.6748C10.153 5.6748 5.67578 10.152 5.67578 15.6749C5.67578 21.1977 10.153 25.6749 15.6758 25.6749ZM13.3919 18.8987C12.3697 19.6547 11.2538 19.9607 10.0188 19.8425L10.0077 19.8814C10.053 19.9076 10.098 19.9342 10.1431 19.9608C10.2399 20.0179 10.3367 20.0751 10.4359 20.1277C11.7677 20.8338 13.1796 21.0606 14.6645 20.827C16.4874 20.5403 17.9301 19.6302 18.98 18.1106C19.8172 16.8989 20.2402 15.5497 20.2097 14.0672C20.2075 13.9617 20.2408 13.8954 20.3238 13.8315C20.6971 13.5442 21.0197 13.2058 21.294 12.8218C21.2979 12.8163 21.3022 12.811 21.3066 12.8056C21.3272 12.7799 21.3496 12.752 21.3396 12.7013C20.9463 12.8633 20.5459 12.9889 20.1227 13.0311C20.5597 12.7128 20.8825 12.3157 21.0507 11.792C20.999 11.7827 20.9696 11.8018 20.9426 11.8193C20.9354 11.824 20.9283 11.8286 20.9211 11.8325C20.5355 12.0393 20.1339 12.202 19.7057 12.2973C19.6117 12.3182 19.548 12.2984 19.4765 12.2331C18.9538 11.7553 18.3428 11.5361 17.6326 11.5985C16.4529 11.7022 15.3745 12.7763 15.5295 14.2312L15.5306 14.2416C15.5543 14.4635 15.5544 14.4647 15.3355 14.448C14.4682 14.3818 13.6507 14.1358 12.88 13.7376C12.0936 13.3313 11.4158 12.7833 10.8467 12.1026C10.7782 12.0206 10.7514 12.0326 10.7057 12.1193C10.2404 13.0008 10.4088 14.1459 11.1088 14.8539C11.2064 14.9525 11.3101 15.0441 11.4453 15.144C11.1128 15.1294 10.8332 15.0519 10.5666 14.923C10.4329 14.8584 10.424 14.8637 10.4255 15.0096C10.4255 15.0137 10.4255 15.0177 10.4255 15.0218C10.4256 15.0381 10.4257 15.0546 10.4273 15.0709C10.5072 15.8602 10.8714 16.4757 11.5382 16.9066C11.7461 17.041 11.976 17.1258 12.2432 17.2071C11.9399 17.2834 11.6684 17.2773 11.397 17.2551C11.2535 17.2433 11.2382 17.2533 11.2932 17.3845C11.619 18.1624 12.1899 18.6501 13.0105 18.8372C13.0881 18.8549 13.1672 18.8661 13.2548 18.8785C13.2981 18.8846 13.3435 18.8911 13.3919 18.8987Z" fill="white" style="fill:white;fill-opacity:1;"/>
</svg>
