<svg width="752" height="164" viewBox="0 0 752 164" fill="none" xmlns="http://www.w3.org/2000/svg">
<path d="M32.8601 148.021V128.827H13.6667V109.634H52.0536V128.827H109.634V90.4405H32.8601V71.2471H13.6667V32.8601H32.8601V13.6667H128.827V32.8601H148.021V52.0536H109.634V32.8601H52.0536V71.2471H128.827V90.4405H148.021V128.827H128.827V148.021H32.8601Z" fill="#12FF80" style="fill:#12FF80;fill:color(display-p3 0.0706 1.0000 0.5020);fill-opacity:1;"/>
<path d="M744.324 90.2218H692.796V73.7782H744.324V90.2218ZM751.667 127H692.796C690.537 127 688.068 126.603 685.391 125.808C682.713 125.013 680.223 123.715 677.922 121.916C675.663 120.075 673.759 117.711 672.211 114.824C670.704 111.895 669.951 108.318 669.951 104.092V45.2218C669.951 44.092 670.16 43.0251 670.579 42.0209C670.997 41.0167 671.562 40.1381 672.273 39.3849C673.027 38.6318 673.905 38.046 674.909 37.6276C675.914 37.2092 677.001 37 678.173 37H751.667V53.318H686.269V104.092C686.269 106.226 686.834 107.858 687.964 108.987C689.093 110.117 690.746 110.682 692.922 110.682H751.667V127Z" fill="white" style="fill:white;fill-opacity:1;"/>
<path d="M645.607 118.778C645.607 119.95 645.398 121.038 644.98 122.042C644.561 123.046 643.975 123.925 643.222 124.678C642.511 125.389 641.653 125.954 640.649 126.372C639.645 126.791 638.557 127 637.385 127H578.515C577.009 127 575.377 126.833 573.62 126.498C571.904 126.121 570.189 125.556 568.473 124.803C566.8 124.05 565.189 123.088 563.641 121.916C562.093 120.703 560.712 119.259 559.498 117.586C558.327 115.87 557.385 113.904 556.674 111.686C555.963 109.427 555.607 106.895 555.607 104.092V59.9079C555.607 58.4017 555.775 56.7908 556.109 55.0753C556.486 53.318 557.051 51.6025 557.804 49.9289C558.557 48.2134 559.54 46.5816 560.754 45.0335C561.967 43.4854 563.411 42.1255 565.084 40.954C566.8 39.7406 568.766 38.7782 570.984 38.0669C573.201 37.3556 575.712 37 578.515 37H644.854V53.318H578.515C576.381 53.318 574.75 53.8828 573.62 55.0126C572.49 56.1423 571.925 57.8159 571.925 60.0335V104.092C571.925 106.184 572.49 107.816 573.62 108.987C574.791 110.117 576.423 110.682 578.515 110.682H629.289V90.2218H585.858V73.7782H637.385C638.557 73.7782 639.645 74.0084 640.649 74.4686C641.653 74.887 642.511 75.4728 643.222 76.2259C643.975 76.9791 644.561 77.8577 644.98 78.8619C645.398 79.8243 645.607 80.8703 645.607 82V118.778Z" fill="white" style="fill:white;fill-opacity:1;"/>
<path d="M532.707 67.251C532.707 70.9749 532.247 74.3013 531.326 77.2301C530.406 80.159 529.15 82.7531 527.56 85.0126C526.012 87.2301 524.213 89.1339 522.163 90.7238C520.113 92.3138 517.958 93.6318 515.699 94.6778C513.481 95.682 511.222 96.4142 508.92 96.8745C506.661 97.3347 504.527 97.5648 502.519 97.5648L536.598 127H511.368L477.351 97.5648H465.615V81.2469H502.519C504.569 81.0795 506.431 80.6611 508.104 79.9916C509.82 79.2803 511.284 78.3389 512.498 77.1674C513.753 75.9958 514.715 74.5941 515.385 72.9623C516.054 71.2887 516.389 69.3849 516.389 67.251V56.9582C516.389 56.0377 516.263 55.3473 516.012 54.887C515.803 54.3849 515.51 54.0293 515.134 53.8201C514.799 53.569 514.422 53.4226 514.004 53.3808C513.627 53.3389 513.272 53.318 512.937 53.318H459.088V127H442.77V45.2218C442.77 44.092 442.979 43.0251 443.397 42.0209C443.816 41.0167 444.381 40.1381 445.092 39.3849C445.845 38.6318 446.724 38.046 447.728 37.6276C448.732 37.2092 449.82 37 450.991 37H512.937C516.577 37 519.652 37.6695 522.163 39.0084C524.673 40.3054 526.703 41.9582 528.251 43.9665C529.841 45.9331 530.97 48.0669 531.64 50.3682C532.351 52.6695 532.707 54.8243 532.707 56.8326V67.251Z" fill="white" style="fill:white;fill-opacity:1;"/>
<path d="M416.041 118.778C416.041 119.95 415.832 121.038 415.413 122.042C414.995 123.046 414.409 123.925 413.656 124.678C412.903 125.389 412.024 125.954 411.02 126.372C410.016 126.791 408.949 127 407.819 127H371.041C367.568 127 364.053 126.623 360.497 125.87C356.94 125.117 353.488 123.967 350.141 122.418C346.836 120.828 343.719 118.82 340.79 116.393C337.861 113.967 335.288 111.1 333.07 107.795C330.894 104.448 329.179 100.64 327.924 96.3724C326.668 92.0628 326.041 87.272 326.041 82V37H342.359V82C342.359 86.6025 342.986 90.4937 344.242 93.6736C345.539 96.8536 347.17 99.5105 349.137 101.644C351.104 103.778 353.258 105.452 355.601 106.665C357.945 107.879 360.162 108.778 362.254 109.364C364.388 109.95 366.25 110.326 367.84 110.494C369.472 110.619 370.539 110.682 371.041 110.682H399.723V37H416.041V118.778Z" fill="white" style="fill:white;fill-opacity:1;"/>
<path d="M306.592 100.515C306.592 103.736 306.174 106.644 305.337 109.238C304.542 111.791 303.475 114.05 302.136 116.017C300.797 117.983 299.228 119.657 297.429 121.038C295.63 122.418 293.768 123.548 291.843 124.427C289.919 125.305 287.952 125.954 285.944 126.372C283.977 126.791 282.115 127 280.358 127H217.408V110.682H280.358C283.496 110.682 285.923 109.761 287.638 107.92C289.396 106.079 290.274 103.611 290.274 100.515C290.274 99.0084 290.044 97.6276 289.584 96.3724C289.124 95.1172 288.454 94.0293 287.575 93.1088C286.739 92.1883 285.693 91.477 284.437 90.9749C283.224 90.4728 281.864 90.2218 280.358 90.2218H242.827C240.191 90.2218 237.345 89.7615 234.291 88.841C231.237 87.8787 228.391 86.3515 225.755 84.2594C223.161 82.1674 220.986 79.4268 219.228 76.0377C217.513 72.6485 216.655 68.5063 216.655 63.6109C216.655 58.7155 217.513 54.5941 219.228 51.2469C220.986 47.8577 223.161 45.1172 225.755 43.0251C228.391 40.8912 231.237 39.364 234.291 38.4435C237.345 37.4812 240.191 37 242.827 37H298.37V53.318H242.827C239.73 53.318 237.304 54.2594 235.546 56.1423C233.831 58.0251 232.973 60.5146 232.973 63.6109C232.973 66.749 233.831 69.2385 235.546 71.0795C237.304 72.8787 239.73 73.7782 242.827 73.7782H280.358H280.483C282.241 73.8201 284.103 74.0711 286.069 74.5314C288.036 74.9498 289.981 75.6192 291.906 76.5397C293.873 77.4602 295.734 78.6318 297.492 80.0544C299.249 81.4351 300.797 83.1088 302.136 85.0753C303.517 87.0418 304.605 89.3013 305.4 91.8536C306.195 94.4059 306.592 97.2929 306.592 100.515Z" fill="white" style="fill:white;fill-opacity:1;"/>
</svg>
