<svg width="20" height="20" viewBox="0 0 20 20" fill="none" xmlns="http://www.w3.org/2000/svg">
<g id="vuesax/linear/book">
<g id="book">
<path id="Vector" d="M18.3337 13.95V3.89168C18.3337 2.89168 17.517 2.15001 16.5253 2.23335H16.4753C14.7253 2.38335 12.067 3.27502 10.5837 4.20835L10.442 4.30001C10.2003 4.45001 9.80033 4.45001 9.55866 4.30001L9.35033 4.17502C7.86699 3.25002 5.21699 2.36668 3.46699 2.22501C2.47533 2.14168 1.66699 2.89168 1.66699 3.88335V13.95C1.66699 14.75 2.31699 15.5 3.11699 15.6L3.35866 15.6333C5.16699 15.875 7.95866 16.7917 9.55866 17.6667L9.59199 17.6833C9.81699 17.8083 10.1753 17.8083 10.392 17.6833C11.992 16.8 14.792 15.875 16.6087 15.6333L16.8837 15.6C17.6837 15.5 18.3337 14.75 18.3337 13.95Z" stroke="white" stroke-width="1.36364" stroke-linecap="round" stroke-linejoin="round"/>
<path id="Vector_2" d="M10 4.57501V17.075" stroke="white" stroke-width="1.36364" stroke-linecap="round" stroke-linejoin="round"/>
<path id="Vector_3" d="M6.45801 7.07501H4.58301" stroke="white" stroke-width="1.36364" stroke-linecap="round" stroke-linejoin="round"/>
<path id="Vector_4" d="M7.08301 9.57501H4.58301" stroke="white" stroke-width="1.36364" stroke-linecap="round" stroke-linejoin="round"/>
</g>
</g>
</svg>
