<svg width="20" height="20" viewBox="0 0 20 20" fill="none" xmlns="http://www.w3.org/2000/svg">
<g id="grid-plus">
<path id="Icon" d="M14.1668 11.6667V16.6667M11.6668 14.1667H16.6668M13.6668 8.33334H14.6668C15.3669 8.33334 15.7169 8.33334 15.9843 8.1971C16.2195 8.07726 16.4107 7.88603 16.5306 7.65083C16.6668 7.38344 16.6668 7.03341 16.6668 6.33334V5.33334C16.6668 4.63328 16.6668 4.28325 16.5306 4.01586C16.4107 3.78065 16.2195 3.58943 15.9843 3.46959C15.7169 3.33334 15.3669 3.33334 14.6668 3.33334H13.6668C12.9668 3.33334 12.6167 3.33334 12.3493 3.46959C12.1141 3.58943 11.9229 3.78065 11.8031 4.01586C11.6668 4.28325 11.6668 4.63328 11.6668 5.33334V6.33334C11.6668 7.03341 11.6668 7.38344 11.8031 7.65083C11.9229 7.88603 12.1141 8.07726 12.3493 8.1971C12.6167 8.33334 12.9668 8.33334 13.6668 8.33334ZM5.3335 8.33334H6.3335C7.03356 8.33334 7.38359 8.33334 7.65098 8.1971C7.88619 8.07726 8.07741 7.88603 8.19725 7.65083C8.3335 7.38344 8.3335 7.03341 8.3335 6.33334V5.33334C8.3335 4.63328 8.3335 4.28325 8.19725 4.01586C8.07741 3.78065 7.88619 3.58943 7.65098 3.46959C7.38359 3.33334 7.03356 3.33334 6.3335 3.33334H5.3335C4.63343 3.33334 4.2834 3.33334 4.01601 3.46959C3.78081 3.58943 3.58958 3.78065 3.46974 4.01586C3.3335 4.28325 3.3335 4.63328 3.3335 5.33334V6.33334C3.3335 7.03341 3.3335 7.38344 3.46974 7.65083C3.58958 7.88603 3.78081 8.07726 4.01601 8.1971C4.2834 8.33334 4.63343 8.33334 5.3335 8.33334ZM5.3335 16.6667H6.3335C7.03356 16.6667 7.38359 16.6667 7.65098 16.5304C7.88619 16.4106 8.07741 16.2194 8.19725 15.9842C8.3335 15.7168 8.3335 15.3667 8.3335 14.6667V13.6667C8.3335 12.9666 8.3335 12.6166 8.19725 12.3492C8.07741 12.114 7.88619 11.9228 7.65098 11.8029C7.38359 11.6667 7.03356 11.6667 6.3335 11.6667H5.3335C4.63343 11.6667 4.2834 11.6667 4.01601 11.8029C3.78081 11.9228 3.58958 12.114 3.46974 12.3492C3.3335 12.6166 3.3335 12.9666 3.3335 13.6667V14.6667C3.3335 15.3667 3.3335 15.7168 3.46974 15.9842C3.58958 16.2194 3.78081 16.4106 4.01601 16.5304C4.2834 16.6667 4.63343 16.6667 5.3335 16.6667Z" stroke="white" stroke-width="1.6" stroke-linecap="round" stroke-linejoin="round"/>
</g>
</svg>
