<svg width="18" height="18" viewBox="0 0 18 18" fill="none" xmlns="http://www.w3.org/2000/svg">
<g id="vuesax/linear/trade">
<g id="vuesax/linear/trade_2">
<g id="trade">
<path id="Vector" d="M16.5 6.37491C16.5 9.06741 14.3175 11.2499 11.625 11.2499C11.4975 11.2499 11.3625 11.2424 11.235 11.2349C11.0475 8.85742 9.14249 6.9524 6.76499 6.7649C6.75749 6.6374 6.75 6.50241 6.75 6.37491C6.75 3.68241 8.9325 1.49991 11.625 1.49991C14.3175 1.49991 16.5 3.68241 16.5 6.37491Z" stroke="white" stroke-width="1.22727" stroke-linecap="round" stroke-linejoin="round"/>
<path id="Vector_2" d="M11.25 11.625C11.25 14.3175 9.0675 16.5 6.375 16.5C3.6825 16.5 1.5 14.3175 1.5 11.625C1.5 8.9325 3.6825 6.75 6.375 6.75C6.5025 6.75 6.63749 6.75749 6.76499 6.76499C9.14249 6.95249 11.0475 8.85751 11.235 11.235C11.2425 11.3625 11.25 11.4975 11.25 11.625Z" stroke="white" stroke-width="1.22727" stroke-linecap="round" stroke-linejoin="round"/>
<path id="Vector_3" d="M4.1925 1.49991H2.25C1.8375 1.49991 1.5 1.83741 1.5 2.24991V4.19241C1.5 4.85991 2.30999 5.1974 2.78249 4.7249L4.72499 2.7824C5.18999 2.3099 4.86 1.49991 4.1925 1.49991Z" stroke="white" stroke-width="1.22727" stroke-linecap="round" stroke-linejoin="round"/>
<path id="Vector_4" d="M13.8073 16.5H15.7498C16.1623 16.5 16.4998 16.1625 16.4998 15.75V13.8075C16.4998 13.14 15.6898 12.8025 15.2173 13.275L13.2748 15.2175C12.8098 15.69 13.1398 16.5 13.8073 16.5Z" stroke="white" stroke-width="1.22727" stroke-linecap="round" stroke-linejoin="round"/>
</g>
</g>
</g>
</svg>
