<svg width="14" height="14" viewBox="0 0 14 14" fill="none" xmlns="http://www.w3.org/2000/svg">
<g id="Bitcoin (BTC)">
<path id="Bitcoin (BTC)_2" d="M13.7905 8.69333C12.8556 12.4434 9.05738 14.7256 5.3069 13.7904C1.55799 12.8555 -0.724207 9.05711 0.211105 5.30738C1.14559 1.55693 4.94377 -0.725437 8.69309 0.209464C12.4433 1.14436 14.7254 4.94319 13.7904 8.6934L13.7904 8.69333H13.7905Z" fill="#F7931A"/>
<path id="Bitcoin (BTC)_3" fill-rule="evenodd" clip-rule="evenodd" d="M10.0876 6.00267C10.2269 5.07113 9.51769 4.57038 8.54789 4.23634L8.8625 2.97448L8.09436 2.78308L7.7881 4.01172C7.58616 3.96135 7.37878 3.91389 7.17267 3.86685L7.48116 2.6301L6.7135 2.4387L6.39872 3.70015C6.23161 3.6621 6.06748 3.6245 5.90824 3.58488L5.90913 3.58091L4.84986 3.31639L4.64552 4.13681C4.64552 4.13681 5.21542 4.26744 5.20341 4.27548C5.51446 4.35312 5.57071 4.55902 5.56137 4.72223L5.20299 6.15979C5.22441 6.16523 5.2522 6.1731 5.28285 6.18542L5.26055 6.17985C5.2416 6.17511 5.22189 6.17018 5.20166 6.16533L4.69934 8.17915C4.66133 8.27365 4.56484 8.41547 4.34737 8.36162C4.35507 8.37277 3.78908 8.22229 3.78908 8.22229L3.40771 9.10156L4.40732 9.35075C4.51676 9.3782 4.62492 9.40639 4.73198 9.4343L4.73203 9.43431C4.80686 9.45382 4.88115 9.47318 4.95497 9.49206L4.63711 10.7684L5.40435 10.9598L5.71913 9.69701C5.92874 9.75391 6.13215 9.8064 6.33128 9.85587L6.01756 11.1127L6.78573 11.3041L7.10356 10.0302C8.41339 10.2781 9.39828 10.1781 9.81283 8.99337C10.1469 8.03951 9.7962 7.48933 9.1071 7.13055C9.60901 7.0148 9.98706 6.68469 10.0879 6.00278L10.0876 6.0026L10.0876 6.00267ZM8.33257 8.46365C8.11478 9.33878 6.74495 8.97698 6.11821 8.81144C6.06183 8.79655 6.01147 8.78325 5.9685 8.77258L6.3903 7.08165C6.44267 7.09473 6.50667 7.10909 6.57918 7.12536L6.57918 7.12536C7.22747 7.27085 8.55571 7.56894 8.33261 8.46365H8.33257ZM6.70922 6.34057C7.23174 6.48002 8.37161 6.78423 8.57013 5.98885H8.5702C8.77291 5.17537 7.66514 4.93011 7.12411 4.81033C7.06324 4.79685 7.00955 4.78496 6.9657 4.77403L6.58328 6.3076C6.61938 6.3166 6.66175 6.32791 6.70922 6.34057Z" fill="white"/>
</g>
</svg>
