<svg width="32" height="32" viewBox="0 0 32 32" fill="none" xmlns="http://www.w3.org/2000/svg">
<path opacity="0.8" fill-rule="evenodd" clip-rule="evenodd" d="M16 26C21.5228 26 26 21.5228 26 16C26 10.4772 21.5228 6 16 6C10.4772 6 6 10.4772 6 16C6 21.5228 10.4772 26 16 26ZM11.0613 12.1611L11.0009 12.1111C11.1722 11.8753 11.3545 11.7018 11.5904 11.5305C12.3205 11 13.3621 11 15.4453 11H16.5564C18.6396 11 19.6812 11 20.4114 11.5305C20.6472 11.7018 20.8152 11.8563 20.9865 12.0921L20.9167 12.1615L19.6345 13.4437C18.7003 14.3779 18.0286 15.0484 17.4493 15.4904C16.8795 15.9251 16.4484 16.0994 16.0008 16.0994C15.5532 16.0994 15.122 15.9251 14.5523 15.4904C13.973 15.0484 13.3013 14.3779 12.367 13.4437L11.2875 12.3641L11.0613 12.1611ZM10.4453 16C10.4453 14.5334 10.4453 13.583 10.6304 12.8942L10.7141 12.9693L11.8003 14.0555L11.8003 14.0555C12.7072 14.9623 13.4178 15.673 14.0468 16.1529C14.6907 16.6441 15.2978 16.9327 16.0008 16.9327C16.7038 16.9327 17.3109 16.6441 17.9547 16.1529C18.5838 15.673 19.2944 14.9623 20.2012 14.0555L20.2012 14.0555L21.3694 12.8873C21.5564 13.5767 21.5564 14.5285 21.5564 16C21.5564 18.0832 21.5564 19.1248 21.0259 19.855C20.8546 20.0908 20.6472 20.2982 20.4114 20.4695C19.6812 21 18.6396 21 16.5564 21H15.4453C13.3621 21 12.3205 21 11.5904 20.4695C11.3545 20.2982 11.1472 20.0908 10.9758 19.855C10.4453 19.1248 10.4453 18.0832 10.4453 16Z" fill="white" style="fill:white;fill-opacity:1;"/>
</svg>
