<svg width="10" height="10" viewBox="0 0 10 10" fill="none" xmlns="http://www.w3.org/2000/svg">
<g id="&#231;&#186;&#191;&#230;&#128;&#167;icon/&#229;&#143;&#175;&#232;&#167;&#134;">
<path id="Union" fill-rule="evenodd" clip-rule="evenodd" d="M1.2085 5C1.2085 4.86234 1.28476 4.60527 1.48386 4.26802C1.67568 3.94309 1.95829 3.58329 2.31178 3.24843C3.02424 2.57351 3.97826 2.04166 5.00016 2.04166C6.02207 2.04166 6.97609 2.57351 7.68855 3.24843C8.04203 3.58329 8.32464 3.94309 8.51647 4.26802C8.71557 4.60527 8.79183 4.86234 8.79183 5C8.79183 5.13765 8.71557 5.39473 8.51647 5.73197C8.32464 6.0569 8.04203 6.41671 7.68855 6.75157C6.97609 7.42648 6.02207 7.95833 5.00016 7.95833C3.97826 7.95833 3.02424 7.42648 2.31178 6.75157C1.95829 6.41671 1.67568 6.0569 1.48386 5.73197C1.28476 5.39473 1.2085 5.13765 1.2085 5ZM5.00016 1.29166C3.72088 1.29166 2.59157 1.95029 1.79599 2.70395C1.39546 3.08337 1.06787 3.49738 0.838009 3.88674C0.615417 4.26378 0.458496 4.66146 0.458496 5C0.458496 5.33853 0.615417 5.73622 0.838009 6.11326C1.06787 6.50262 1.39546 6.91662 1.79599 7.29605C2.59157 8.0497 3.72088 8.70833 5.00016 8.70833C6.27945 8.70833 7.40876 8.0497 8.20434 7.29605C8.60487 6.91662 8.93245 6.50262 9.16232 6.11326C9.38491 5.73622 9.54183 5.33853 9.54183 5C9.54183 4.66146 9.38491 4.26378 9.16232 3.88674C8.93245 3.49738 8.60487 3.08337 8.20434 2.70395C7.40876 1.95029 6.27945 1.29166 5.00016 1.29166ZM4.12516 5C4.12516 4.51675 4.51691 4.125 5.00016 4.125C5.48341 4.125 5.87516 4.51675 5.87516 5C5.87516 5.48325 5.48341 5.875 5.00016 5.875C4.51691 5.875 4.12516 5.48325 4.12516 5ZM5.00016 3.375C4.1027 3.375 3.37516 4.10254 3.37516 5C3.37516 5.89746 4.1027 6.625 5.00016 6.625C5.89763 6.625 6.62516 5.89746 6.62516 5C6.62516 4.10254 5.89763 3.375 5.00016 3.375Z" fill="white"/>
</g>
</svg>
