<svg width="20" height="20" viewBox="0 0 20 20" fill="none" xmlns="http://www.w3.org/2000/svg">
<g id="house-line">
<path id="Icon" d="M7.5 14.1666H12.5M2.5 12.1666V10.1084C2.5 9.15113 2.5 8.6725 2.62338 8.23173C2.73267 7.84128 2.91228 7.47405 3.15338 7.14807C3.42556 6.78007 3.80337 6.48622 4.55898 5.89852L6.72565 4.21333C7.89674 3.30249 8.48228 2.84706 9.12884 2.672C9.69934 2.51754 10.3007 2.51754 10.8712 2.672C11.5177 2.84706 12.1033 3.30249 13.2743 4.21333L15.441 5.89852C16.1966 6.48622 16.5744 6.78007 16.8466 7.14807C17.0877 7.47405 17.2673 7.84128 17.3766 8.23173C17.5 8.6725 17.5 9.15113 17.5 10.1084V12.1666C17.5 14.0335 17.5 14.9669 17.1367 15.6799C16.8171 16.3071 16.3072 16.8171 15.68 17.1366C14.9669 17.4999 14.0335 17.4999 12.1667 17.4999H7.83333C5.96649 17.4999 5.03307 17.4999 4.32003 17.1366C3.69282 16.8171 3.18289 16.3071 2.86331 15.6799C2.5 14.9669 2.5 14.0335 2.5 12.1666Z" stroke="white" stroke-width="1.66667" stroke-linecap="round" stroke-linejoin="round"/>
</g>
</svg>
