<svg width="53" height="14" viewBox="0 0 53 14" fill="none" xmlns="http://www.w3.org/2000/svg">
<rect width="53" height="14" rx="7" fill="#FFD074" fill-opacity="0.1"/>
<circle cx="7.00029" cy="7.0002" r="4.95" fill="#F7931A"/>
<path d="M6.34229 4.61087C6.33405 4.44611 6.46542 4.30801 6.63039 4.30801H7.37006C7.53503 4.30801 7.6664 4.44611 7.65816 4.61087L7.4947 7.88011C7.48702 8.03363 7.36031 8.15416 7.2066 8.15416H6.79385C6.64014 8.15416 6.51343 8.03363 6.50575 7.88011L6.34229 4.61087Z" fill="#2B261D"/>
<rect x="6.51953" y="8.73086" width="0.961538" height="0.961538" rx="0.288462" fill="#2B261D"/>
<path d="M19.47 7.97C19.47 8.39 19.3733 8.76333 19.18 9.09C18.9867 9.41 18.7033 9.66 18.33 9.84C17.9567 10.02 17.5133 10.11 17 10.11C16.2867 10.11 15.6767 9.94333 15.17 9.61C14.6633 9.27667 14.33 8.83333 14.17 8.28L14.89 7.86C15.07 8.32 15.3367 8.67333 15.69 8.92C16.0433 9.16667 16.4833 9.29 17.01 9.29C17.49 9.29 17.8633 9.18333 18.13 8.97C18.3967 8.75667 18.53 8.46 18.53 8.08C18.53 7.77333 18.4467 7.52667 18.28 7.34C18.1133 7.14667 17.9067 6.99667 17.66 6.89C17.42 6.78333 17.0867 6.66667 16.66 6.54C16.1867 6.4 15.8033 6.26667 15.51 6.14C15.2233 6.01333 14.98 5.82333 14.78 5.57C14.58 5.31667 14.48 4.98333 14.48 4.57C14.48 4.15 14.5867 3.79 14.8 3.49C15.0133 3.18333 15.3067 2.95333 15.68 2.8C16.06 2.64 16.4833 2.56 16.95 2.56C17.6033 2.56 18.13 2.70333 18.53 2.99C18.9367 3.27667 19.21 3.64 19.35 4.08L18.63 4.5C18.4767 4.14667 18.2633 3.87 17.99 3.67C17.7233 3.47 17.3667 3.37 16.92 3.37C16.4667 3.37 16.1033 3.47333 15.83 3.68C15.5567 3.88 15.42 4.15 15.42 4.49C15.42 4.74333 15.4933 4.95 15.64 5.11C15.7933 5.27 15.9833 5.39667 16.21 5.49C16.4367 5.58333 16.7467 5.68667 17.14 5.8C17.64 5.94667 18.0433 6.09 18.35 6.23C18.6567 6.37 18.92 6.58 19.14 6.86C19.36 7.14 19.47 7.51 19.47 7.97ZM22.6624 4.69C23.1091 4.69 23.4991 4.79667 23.8324 5.01C24.1724 5.21667 24.4324 5.5 24.6124 5.86C24.7924 6.22 24.8824 6.62 24.8824 7.06C24.8824 7.24667 24.8691 7.41667 24.8424 7.57H21.1024C21.1358 8.16333 21.3058 8.60667 21.6124 8.9C21.9191 9.18667 22.3058 9.33 22.7724 9.33C23.3524 9.33 23.7724 9.09667 24.0324 8.63L24.6824 9C24.5491 9.35333 24.2991 9.62667 23.9324 9.82C23.5724 10.0133 23.1691 10.11 22.7224 10.11C22.2558 10.11 21.8291 10.0033 21.4424 9.79C21.0624 9.57667 20.7591 9.26667 20.5324 8.86C20.3124 8.44667 20.2024 7.95333 20.2024 7.38C20.2024 6.82667 20.3124 6.34667 20.5324 5.94C20.7591 5.53333 21.0591 5.22333 21.4324 5.01C21.8058 4.79667 22.2158 4.69 22.6624 4.69ZM22.6324 5.47C22.2591 5.47 21.9324 5.59 21.6524 5.83C21.3791 6.07 21.2058 6.42 21.1324 6.88H23.9624C23.9424 6.43333 23.8124 6.08667 23.5724 5.84C23.3324 5.59333 23.0191 5.47 22.6324 5.47ZM28.7912 9.83C28.5178 10.0167 28.1678 10.11 27.7412 10.11C26.6945 10.11 26.1712 9.51333 26.1712 8.32V5.54H25.3112V4.8H26.1712V3.35H27.0212V4.8H28.5312V5.54H27.0212V8.22C27.0212 8.94667 27.2945 9.31 27.8412 9.31C28.0812 9.31 28.3045 9.25 28.5112 9.13L28.7912 9.83ZM32.4728 9.83C32.1995 10.0167 31.8495 10.11 31.4228 10.11C30.3761 10.11 29.8528 9.51333 29.8528 8.32V5.54H28.9928V4.8H29.8528V3.35H30.7028V4.8H32.2128V5.54H30.7028V8.22C30.7028 8.94667 30.9761 9.31 31.5228 9.31C31.7628 9.31 31.9861 9.25 32.1928 9.13L32.4728 9.83ZM33.7645 3.88C33.6111 3.88 33.4778 3.82333 33.3645 3.71C33.2578 3.59 33.2045 3.45333 33.2045 3.3C33.2045 3.14667 33.2578 3.01333 33.3645 2.9C33.4778 2.78 33.6111 2.72 33.7645 2.72C33.9245 2.72 34.0578 2.77667 34.1645 2.89C34.2778 3.00333 34.3345 3.14 34.3345 3.3C34.3345 3.45333 34.2778 3.59 34.1645 3.71C34.0511 3.82333 33.9178 3.88 33.7645 3.88ZM34.1845 10H33.3345V4.81H34.1845V10ZM38.2566 4.69C38.8099 4.69 39.2532 4.87333 39.5866 5.24C39.9199 5.60667 40.0866 6.12667 40.0866 6.8V10H39.2366V7.04C39.2366 6.54667 39.1366 6.16667 38.9366 5.9C38.7432 5.63333 38.4532 5.5 38.0666 5.5C37.8132 5.5 37.5732 5.56 37.3466 5.68C37.1266 5.79333 36.9466 5.96667 36.8066 6.2C36.6666 6.42667 36.5966 6.71 36.5966 7.05V10H35.7466V4.81H36.4966C36.5099 5.14333 36.5299 5.43 36.5566 5.67C36.7299 5.35 36.9632 5.10667 37.2566 4.94C37.5566 4.77333 37.8899 4.69 38.2566 4.69ZM46.0773 4.8V9.67C46.0773 10.6767 45.8373 11.39 45.3573 11.81C44.8773 12.23 44.3073 12.44 43.6473 12.44C43.134 12.44 42.6773 12.33 42.2773 12.11C41.8773 11.89 41.604 11.58 41.4573 11.18L42.1473 10.79C42.4073 11.3567 42.9107 11.64 43.6573 11.64C44.144 11.64 44.5273 11.4933 44.8073 11.2C45.0873 10.9067 45.2273 10.39 45.2273 9.65V9.2C45.034 9.50667 44.7873 9.73667 44.4873 9.89C44.194 10.0367 43.8773 10.11 43.5373 10.11C43.144 10.11 42.7707 10.0033 42.4173 9.79C42.0707 9.57 41.7873 9.25667 41.5673 8.85C41.354 8.43667 41.2473 7.95333 41.2473 7.4C41.2473 6.84667 41.354 6.36333 41.5673 5.95C41.7807 5.53667 42.064 5.22333 42.4173 5.01C42.7707 4.79667 43.144 4.69 43.5373 4.69C43.884 4.69 44.2107 4.77333 44.5173 4.94C44.8307 5.10667 45.0807 5.35333 45.2673 5.68C45.3007 5.36667 45.3207 5.07333 45.3273 4.8H46.0773ZM43.6373 9.31C44.0707 9.31 44.444 9.15667 44.7573 8.85C45.0707 8.54333 45.2273 8.06 45.2273 7.4C45.2273 6.74667 45.0707 6.26667 44.7573 5.96C44.444 5.65333 44.0707 5.5 43.6373 5.5C43.184 5.5 42.8207 5.66667 42.5473 6C42.274 6.33333 42.1373 6.8 42.1373 7.4C42.1373 8.00667 42.274 8.47667 42.5473 8.81C42.8207 9.14333 43.184 9.31 43.6373 9.31Z" fill="#FFD074"/>
</svg>
