<svg width="20" height="20" fill="none" xmlns="http://www.w3.org/2000/svg" viewBox="0 0 20 20"><path d="M19.7 12.419c-1.335 5.357-6.76 8.617-12.119 7.282-5.355-1.336-8.615-6.762-7.28-12.119C1.638 2.224 7.064-1.036 12.42.299c5.357 1.336 8.617 6.763 7.282 12.12Z" fill="#F7931A"/><path fill-rule="evenodd" clip-rule="evenodd" d="M14.41 8.575c.2-1.33-.813-2.046-2.199-2.523l.45-1.803-1.098-.273-.437 1.755a45.41 45.41 0 0 0-.88-.207l.441-1.767-1.097-.273-.45 1.802a36.262 36.262 0 0 1-.7-.165l.001-.005-1.513-.378-.292 1.172s.814.186.797.198c.445.11.525.405.512.638L7.433 8.8c.03.007.07.019.114.036l-.032-.008a8.28 8.28 0 0 0-.084-.02l-.718 2.877c-.054.134-.192.337-.503.26.011.016-.797-.199-.797-.199l-.545 1.256 1.428.356.464.12.318.082-.454 1.823 1.096.274.45-1.804c.3.081.59.156.874.227l-.448 1.795 1.098.274.454-1.82c1.87.354 3.278.211 3.87-1.481.477-1.363-.024-2.149-1.008-2.662.717-.165 1.257-.636 1.401-1.61Zm-2.507 3.516c-.31 1.25-2.268.733-3.163.497l-.214-.056.603-2.415.27.062c.926.208 2.823.634 2.505 1.912ZM9.584 9.058c.747.2 2.375.634 2.659-.503.29-1.162-1.293-1.512-2.066-1.683a9.443 9.443 0 0 1-.226-.052l-.547 2.19.18.048Z" fill="#fff"/></svg>