<svg width="34" height="34" fill="none" xmlns="http://www.w3.org/2000/svg" viewBox="0 0 34 34"><rect x="1" y="1" width="32" height="32" rx="16" stroke="currentColor" stroke-width="2"/><path d="M9 24V11.2c0-1.12 0-1.68.218-2.108a2 2 0 0 1 .874-.874C10.52 8 11.08 8 12.2 8h9.6c1.12 0 1.68 0 2.108.218a2 2 0 0 1 .874.874C25 9.52 25 10.08 25 11.2V22H11a2 2 0 0 0-2 2Zm0 0a2 2 0 0 0 2 2h14M14 12h6m-6 4h6m4 6v4" stroke="currentColor" stroke-width="2" stroke-linecap="round" stroke-linejoin="round"/></svg>