<svg fill="none" xmlns="http://www.w3.org/2000/svg" viewBox="0 0 752 164"><path d="M32.86 148.021v-19.194H13.667v-19.193h38.387v19.193h57.58V90.441H32.86V71.246H13.667V32.86H32.86V13.667h95.967V32.86h19.194v19.194h-38.387V32.86h-57.58v38.387h76.773v19.194h19.194v38.386h-19.194v19.194H32.86Z" fill="color(display-p3 .0706 1 .502)"/><path d="M744.324 90.222h-51.528V73.778h51.528v16.444ZM751.667 127h-58.871c-2.259 0-4.728-.397-7.405-1.192-2.678-.795-5.168-2.093-7.469-3.892-2.259-1.841-4.163-4.205-5.711-7.092-1.507-2.929-2.26-6.506-2.26-10.732v-58.87c0-1.13.209-2.197.628-3.201a8.633 8.633 0 0 1 1.694-2.636 8.098 8.098 0 0 1 2.636-1.757c1.005-.419 2.092-.628 3.264-.628h73.494v16.318h-65.398v50.774c0 2.134.565 3.766 1.695 4.895 1.129 1.13 2.782 1.695 4.958 1.695h58.745V127Zm-106.06-8.222c0 1.172-.209 2.26-.627 3.264a8.1 8.1 0 0 1-1.758 2.636c-.711.711-1.569 1.276-2.573 1.694-1.004.419-2.092.628-3.264.628h-58.87c-1.506 0-3.138-.167-4.895-.502a27.468 27.468 0 0 1-5.147-1.695 24.994 24.994 0 0 1-4.832-2.887 21.504 21.504 0 0 1-4.143-4.33c-1.171-1.716-2.113-3.682-2.824-5.9-.711-2.259-1.067-4.791-1.067-7.594V59.908c0-1.506.168-3.117.502-4.833a25.602 25.602 0 0 1 1.695-5.146 22.714 22.714 0 0 1 2.95-4.896 20.12 20.12 0 0 1 4.33-4.079c1.716-1.213 3.682-2.176 5.9-2.887 2.217-.711 4.728-1.067 7.531-1.067h66.339v16.318h-66.339c-2.134 0-3.765.565-4.895 1.695-1.13 1.13-1.695 2.803-1.695 5.02v44.059c0 2.092.565 3.724 1.695 4.895 1.171 1.13 2.803 1.695 4.895 1.695h50.774v-20.46h-43.431V73.778h51.527c1.172 0 2.26.23 3.264.69a7.41 7.41 0 0 1 2.573 1.758 8.1 8.1 0 0 1 1.758 2.636c.418.962.627 2.008.627 3.138v36.778Zm-112.9-51.527c0 3.724-.46 7.05-1.381 9.98-.92 2.928-2.176 5.522-3.766 7.782-1.548 2.217-3.347 4.12-5.397 5.71a33.498 33.498 0 0 1-6.464 3.955 31.254 31.254 0 0 1-6.779 2.197c-2.259.46-4.393.69-6.401.69L536.598 127h-25.23l-34.017-29.435h-11.736V81.247h36.904c2.05-.168 3.912-.586 5.585-1.255 1.716-.712 3.18-1.653 4.394-2.825a11.815 11.815 0 0 0 2.887-4.205c.669-1.673 1.004-3.577 1.004-5.711V56.958c0-.92-.126-1.61-.377-2.071-.209-.502-.502-.858-.878-1.067a2.218 2.218 0 0 0-1.13-.44 9.673 9.673 0 0 0-1.067-.062h-53.849V127H442.77V45.222c0-1.13.209-2.197.627-3.201a8.655 8.655 0 0 1 1.695-2.636 8.087 8.087 0 0 1 2.636-1.757c1.004-.419 2.092-.628 3.263-.628h61.946c3.64 0 6.715.67 9.226 2.008 2.51 1.297 4.54 2.95 6.088 4.959 1.59 1.966 2.719 4.1 3.389 6.401.711 2.301 1.067 4.456 1.067 6.465V67.25Zm-116.666 51.527c0 1.172-.209 2.26-.628 3.264a8.082 8.082 0 0 1-1.757 2.636 8.633 8.633 0 0 1-2.636 1.694 8.227 8.227 0 0 1-3.201.628h-36.778c-3.473 0-6.988-.377-10.544-1.13a48.502 48.502 0 0 1-10.356-3.452c-3.305-1.59-6.422-3.598-9.351-6.025-2.929-2.426-5.502-5.293-7.72-8.598-2.176-3.347-3.891-7.155-5.146-11.423-1.256-4.31-1.883-9.1-1.883-14.372V37h16.318v45c0 4.603.627 8.494 1.883 11.674 1.297 3.18 2.928 5.836 4.895 7.97 1.967 2.134 4.121 3.808 6.464 5.021 2.344 1.214 4.561 2.113 6.653 2.699 2.134.586 3.996.962 5.586 1.13 1.632.125 2.699.188 3.201.188h28.682V37h16.318v81.778Zm-109.449-18.263c0 3.221-.418 6.129-1.255 8.723-.795 2.553-1.862 4.812-3.201 6.779-1.339 1.966-2.908 3.64-4.707 5.021-1.799 1.38-3.661 2.51-5.586 3.389a27.851 27.851 0 0 1-5.899 1.945c-1.967.419-3.829.628-5.586.628h-62.95v-16.318h62.95c3.138 0 5.565-.921 7.28-2.762 1.758-1.841 2.636-4.309 2.636-7.405 0-1.507-.23-2.887-.69-4.143a9.296 9.296 0 0 0-2.009-3.263c-.836-.92-1.882-1.632-3.138-2.134-1.213-.502-2.573-.753-4.079-.753h-37.531c-2.636 0-5.482-.46-8.536-1.381-3.054-.962-5.9-2.49-8.536-4.582-2.594-2.092-4.769-4.832-6.527-8.221-1.715-3.39-2.573-7.532-2.573-12.427s.858-9.017 2.573-12.364c1.758-3.39 3.933-6.13 6.527-8.222 2.636-2.134 5.482-3.661 8.536-4.581 3.054-.963 5.9-1.444 8.536-1.444h55.543v16.318h-55.543c-3.097 0-5.523.941-7.281 2.824-1.715 1.883-2.573 4.373-2.573 7.469 0 3.138.858 5.628 2.573 7.468 1.758 1.8 4.184 2.7 7.281 2.7h37.656c1.758.041 3.62.292 5.586.752a26.09 26.09 0 0 1 5.837 2.009 27.171 27.171 0 0 1 5.586 3.514c1.757 1.381 3.305 3.055 4.644 5.021 1.381 1.967 2.469 4.226 3.264 6.779.795 2.552 1.192 5.439 1.192 8.661Z" fill="#fff"/></svg>