<svg width="34" height="34" fill="none" xmlns="http://www.w3.org/2000/svg" viewBox="0 0 34 34"><rect x="1" y="1" width="32" height="32" rx="16" stroke="currentColor" stroke-width="2"/><path d="m14 18 2 2 4-4m-2.937-4.937-.126-.126c-.346-.346-.519-.519-.72-.642a2.003 2.003 0 0 0-.578-.24c-.23-.055-.475-.055-.964-.055H11.2c-1.12 0-1.68 0-2.108.218a2 2 0 0 0-.874.874C8 11.52 8 12.08 8 13.2v7.6c0 1.12 0 1.68.218 2.108a2 2 0 0 0 .874.874C9.52 24 10.08 24 11.2 24h11.6c1.12 0 1.68 0 2.108-.218a2 2 0 0 0 .874-.874C26 22.48 26 21.92 26 20.8v-5.6c0-1.12 0-1.68-.218-2.108a2 2 0 0 0-.874-.874C24.48 12 23.92 12 22.8 12h-3.474c-.49 0-.734 0-.965-.055a2.02 2.02 0 0 1-.578-.24c-.201-.123-.374-.296-.72-.642Z" stroke="currentColor" stroke-width="2" stroke-linecap="round" stroke-linejoin="round"/></svg>