<svg width="34" height="34" fill="none" xmlns="http://www.w3.org/2000/svg" viewBox="0 0 34 34"><rect x="1" y="1" width="32" height="32" rx="16" stroke="currentColor" stroke-width="2"/><path d="M16 9h-2.2c-1.68 0-2.52 0-3.162.327a3 3 0 0 0-1.311 1.311C9 11.28 9 12.12 9 13.8v6.4c0 1.68 0 2.52.327 3.162a3 3 0 0 0 1.311 1.311C11.28 25 12.12 25 13.8 25h6.4c1.68 0 2.52 0 3.162-.327a3 3 0 0 0 1.311-1.311C25 22.72 25 21.88 25 20.2v-2.7M14 20l1.755-.347c.71-.14 1.064-.21 1.395-.34.293-.114.572-.263.831-.443.291-.203.547-.459 1.058-.97l6.04-6.039a2 2 0 0 0-2.83-2.828l-6.126 6.127c-.48.479-.719.718-.912.99-.172.241-.316.5-.431.774-.129.307-.207.637-.362 1.297L14 20Zm9.684-6.705 1.414-1.414a2 2 0 1 0-2.829-2.829l-1.414 1.415 2.829 2.828Z" stroke="currentColor" stroke-width="2" stroke-linecap="round" stroke-linejoin="round"/></svg>