<svg width="300" height="6" fill="none" xmlns="http://www.w3.org/2000/svg" viewBox="0 0 300 6"><path d="m300 3-5-2.887v5.774L300 3ZM0 3.5h2.5v-1H0v1Zm7.5 0h5v-1h-5v1Zm10 0h5v-1h-5v1Zm10 0h5v-1h-5v1Zm10 0h5v-1h-5v1Zm10 0h5v-1h-5v1Zm10 0h5v-1h-5v1Zm10 0h5v-1h-5v1Zm10 0h5v-1h-5v1Zm10 0h5v-1h-5v1Zm10 0h5v-1h-5v1Zm10 0h5v-1h-5v1Zm10 0h5v-1h-5v1Zm10 0h5v-1h-5v1Zm10 0h5v-1h-5v1Zm10 0h5v-1h-5v1Zm10 0h5v-1h-5v1Zm10 0h5v-1h-5v1Zm10 0h5v-1h-5v1Zm10 0h5v-1h-5v1Zm10 0h5v-1h-5v1Zm10 0h5v-1h-5v1Zm10 0h5v-1h-5v1Zm10 0h5v-1h-5v1Zm10 0h5v-1h-5v1Zm10 0h5v-1h-5v1Zm10 0h5v-1h-5v1Zm10 0h5v-1h-5v1Zm10 0h5v-1h-5v1Zm10 0h5v-1h-5v1Z" fill="#fff"/></svg>